<svg version="1.1" id="Layer_1" xmlns="http://www.w3.org/2000/svg" x="0px" y="0px" viewBox="0 0 19.84 19.84" enable-background="new 0 0 19.84 19.84" xml:space="preserve">
<g>
	<circle fill="#3F8885" cx="9.821" cy="9.917" r="1.569"/>
	<path fill="#3F8885" d="M10.371,10.501l7.427-5.766c-0.238-0.359-0.502-0.699-0.785-1.022L9.582,9.484L10.371,10.501z"/>
	<g>
		<path fill="#3F8885" d="M9.92,2.183c4.267,0,7.737,3.471,7.737,7.737s-3.471,7.737-7.737,7.737S2.183,14.187,2.183,9.92
			S5.653,2.183,9.92,2.183 M9.92,0.183c-5.378,0-9.737,4.359-9.737,9.737c0,5.377,4.359,9.737,9.737,9.737
			c5.377,0,9.737-4.36,9.737-9.737C19.657,4.542,15.297,0.183,9.92,0.183L9.92,0.183z"/>
	</g>
	<path fill="#3F8885" d="M9.82,13.991c-0.845-0.028-1.277-0.246-1.824-0.528c-1.283-0.665-2.163-2.005-2.163-3.546
		c0-2.199,1.788-3.987,3.987-3.987c1.104,0,2.105,0.452,2.828,1.181l0.833-0.648c-0.92-0.976-2.217-1.593-3.661-1.593
		c-2.783,0-5.048,2.265-5.048,5.048c0,1.82,0.969,3.42,2.42,4.309c0.485,0.298,1.023,0.521,1.6,0.634
		c2.338,0.461,3.796-1.23,3.796-1.23S11.444,14.043,9.82,13.991z"/>
	<circle fill="#3F8885" cx="7.172" cy="6.422" r="1.965"/>
</g>
</svg>
